<svg xmlns="http://www.w3.org/2000/svg" xmlns:xlink="http://www.w3.org/1999/xlink" width="2037" zoomAndPan="magnify" viewBox="0 0 1527.75 704.249983" height="939" preserveAspectRatio="xMidYMid meet" version="1.0"><defs><g/><clipPath id="8649287c3f"><path d="M 0.6875 0 L 1526.8125 0 L 1526.8125 703.5 L 0.6875 703.5 Z M 0.6875 0 " clip-rule="nonzero"/></clipPath><clipPath id="00fdec778b"><path d="M 0.6875 0 L 1526.8125 0 L 1526.8125 703.5 L 0.6875 703.5 Z M 0.6875 0 " clip-rule="nonzero"/></clipPath><clipPath id="c6b40a01f8"><path d="M 10 0 L 259 0 L 259 516 L 10 516 Z M 10 0 " clip-rule="nonzero"/></clipPath><clipPath id="97896e1cd4"><path d="M 1176 203 L 1526.8125 203 L 1526.8125 525 L 1176 525 Z M 1176 203 " clip-rule="nonzero"/></clipPath><clipPath id="7b7d159aa6"><rect x="0" width="1527" y="0" height="704"/></clipPath><clipPath id="bc70b08a1c"><path d="M 805.355469 213.578125 L 1075.480469 213.578125 L 1075.480469 292.878906 L 805.355469 292.878906 Z M 805.355469 213.578125 " clip-rule="nonzero"/></clipPath><clipPath id="8021584777"><path d="M 0.355469 0.578125 L 270.480469 0.578125 L 270.480469 79.878906 L 0.355469 79.878906 Z M 0.355469 0.578125 " clip-rule="nonzero"/></clipPath><clipPath id="fd6ece7f55"><rect x="0" width="271" y="0" height="80"/></clipPath><clipPath id="c8ab2638b6"><path d="M 831.183594 347.054688 L 918.191406 347.054688 L 918.191406 434.0625 L 831.183594 434.0625 Z M 831.183594 347.054688 " clip-rule="nonzero"/></clipPath><clipPath id="14b1ca8ccd"><path d="M 874.6875 347.054688 C 850.664062 347.054688 831.183594 366.53125 831.183594 390.558594 C 831.183594 414.585938 850.664062 434.0625 874.6875 434.0625 C 898.714844 434.0625 918.191406 414.585938 918.191406 390.558594 C 918.191406 366.53125 898.714844 347.054688 874.6875 347.054688 Z M 874.6875 347.054688 " clip-rule="nonzero"/></clipPath><clipPath id="c98ba5e86b"><path d="M 0.183594 0.0546875 L 87.191406 0.0546875 L 87.191406 87.0625 L 0.183594 87.0625 Z M 0.183594 0.0546875 " clip-rule="nonzero"/></clipPath><clipPath id="bc287b1766"><path d="M 43.6875 0.0546875 C 19.664062 0.0546875 0.183594 19.53125 0.183594 43.558594 C 0.183594 67.585938 19.664062 87.0625 43.6875 87.0625 C 67.714844 87.0625 87.191406 67.585938 87.191406 43.558594 C 87.191406 19.53125 67.714844 0.0546875 43.6875 0.0546875 Z M 43.6875 0.0546875 " clip-rule="nonzero"/></clipPath><clipPath id="e783d6976f"><rect x="0" width="88" y="0" height="88"/></clipPath><clipPath id="4e7227babd"><rect x="0" width="1527" y="0" height="704"/></clipPath></defs><g clip-path="url(#8649287c3f)"><g transform="matrix(1, 0, 0, 1, 0.000000000000000111, 0)"><g clip-path="url(#4e7227babd)"><g clip-path="url(#00fdec778b)"><g transform="matrix(1, 0, 0, 1, 0.000000000000000111, 0)"><g clip-path="url(#7b7d159aa6)"><g clip-path="url(#c6b40a01f8)"><g fill="#16a34a" fill-opacity="1"><g transform="translate(0.687784, 515.575975)"><g><path d="M 53.15625 -303.015625 L 53.15625 -367.40625 C 53.550781 -412.695312 64.179688 -448.925781 85.046875 -476.09375 C 105.921875 -503.269531 134.867188 -516.859375 171.890625 -516.859375 C 187.640625 -516.859375 202.703125 -514.59375 217.078125 -510.0625 C 231.453125 -505.53125 241.789062 -500.898438 248.09375 -496.171875 L 258.125 -489.6875 L 221.515625 -415.84375 C 212.054688 -421.351562 201.617188 -424.109375 190.203125 -424.109375 C 177.203125 -424.109375 168.535156 -419.675781 164.203125 -410.8125 C 159.878906 -401.957031 157.71875 -386.503906 157.71875 -364.453125 L 157.71875 -303.015625 L 227.421875 -303.015625 L 227.421875 -223.28125 L 157.71875 -223.28125 L 157.71875 0 L 53.15625 0 L 53.15625 -223.28125 L 9.453125 -223.28125 L 9.453125 -303.015625 Z M 53.15625 -303.015625 "/></g></g></g></g><g fill="#16a34a" fill-opacity="1"><g transform="translate(192.660501, 515.575975)"><g><path d="M 342.015625 -137.046875 L 122.265625 -137.046875 C 122.265625 -115.773438 129.15625 -100.019531 142.9375 -89.78125 C 156.726562 -79.539062 171.695312 -74.421875 187.84375 -74.421875 C 204.769531 -74.421875 218.15625 -76.6875 228 -81.21875 C 237.84375 -85.75 249.066406 -94.707031 261.671875 -108.09375 L 337.28125 -70.296875 C 305.78125 -17.523438 253.40625 8.859375 180.15625 8.859375 C 134.476562 8.859375 95.296875 -6.789062 62.609375 -38.09375 C 29.921875 -69.40625 13.578125 -107.113281 13.578125 -151.21875 C 13.578125 -195.320312 29.921875 -233.125 62.609375 -264.625 C 95.296875 -296.132812 134.476562 -311.890625 180.15625 -311.890625 C 228.195312 -311.890625 267.28125 -298.003906 297.40625 -270.234375 C 327.53125 -242.472656 342.59375 -202.800781 342.59375 -151.21875 C 342.59375 -144.125 342.398438 -139.398438 342.015625 -137.046875 Z M 125.21875 -194.921875 L 240.40625 -194.921875 C 238.039062 -210.671875 231.835938 -222.78125 221.796875 -231.25 C 211.753906 -239.71875 198.859375 -243.953125 183.109375 -243.953125 C 165.785156 -243.953125 152.003906 -239.421875 141.765625 -230.359375 C 131.523438 -221.304688 126.007812 -209.492188 125.21875 -194.921875 Z M 125.21875 -194.921875 "/></g></g></g><g fill="#16a34a" fill-opacity="1"><g transform="translate(516.356181, 515.575975)"><g><path d="M 265.21875 -303.015625 L 385.71875 -303.015625 L 147.671875 153.578125 L 27.171875 153.578125 L 131.71875 -47.25 L -11.8125 -303.015625 L 108.6875 -303.015625 L 193.15625 -147.671875 Z M 265.21875 -303.015625 "/></g></g></g><g fill="#16a34a" fill-opacity="1"><g transform="translate(860.725781, 515.575975)"><g><path d="M 328.421875 -303.015625 L 178.390625 -79.75 L 316.609375 -79.75 L 316.609375 0 L 2.953125 0 L 152.984375 -223.28125 L 27.765625 -223.28125 L 27.765625 -303.015625 Z M 328.421875 -303.015625 "/></g></g></g><g clip-path="url(#97896e1cd4)"><g fill="#16a34a" fill-opacity="1"><g transform="translate(1162.566155, 515.575975)"><g><path d="M 56.109375 -37.5 C 27.753906 -68.414062 13.578125 -106.316406 13.578125 -151.203125 C 13.578125 -196.097656 27.753906 -234.101562 56.109375 -265.21875 C 84.460938 -296.332031 120.5 -311.890625 164.21875 -311.890625 C 204.382812 -311.890625 237.460938 -299.285156 263.453125 -274.078125 L 263.453125 -303.015625 L 368 -303.015625 L 368 0 L 264.625 0 L 264.625 -34.265625 L 263.453125 -34.265625 C 237.460938 -5.515625 204.382812 8.859375 164.21875 8.859375 C 120.5 8.859375 84.460938 -6.59375 56.109375 -37.5 Z M 145.015625 -202.59375 C 131.429688 -189.207031 124.640625 -172.078125 124.640625 -151.203125 C 124.640625 -130.335938 131.132812 -113.304688 144.125 -100.109375 C 157.125 -86.921875 174.253906 -80.328125 195.515625 -80.328125 C 215.992188 -80.328125 232.828125 -87.019531 246.015625 -100.40625 C 259.210938 -113.800781 265.8125 -130.738281 265.8125 -151.21875 C 265.8125 -172.082031 259.015625 -189.207031 245.421875 -202.59375 C 231.835938 -215.988281 215.203125 -222.6875 195.515625 -222.6875 C 175.429688 -222.6875 158.597656 -215.988281 145.015625 -202.59375 Z M 145.015625 -202.59375 "/></g></g></g></g></g></g></g><g clip-path="url(#bc70b08a1c)"><g transform="matrix(1, 0, 0, 1, 805, 213)"><g clip-path="url(#fd6ece7f55)"><g clip-path="url(#8021584777)"><path fill="#16a34a" d="M 0.355469 0.578125 L 270.472656 0.578125 L 270.472656 79.878906 L 0.355469 79.878906 Z M 0.355469 0.578125 " fill-opacity="1" fill-rule="nonzero"/></g></g></g></g><g clip-path="url(#c8ab2638b6)"><g clip-path="url(#14b1ca8ccd)"><g transform="matrix(1, 0, 0, 1, 831, 347)"><g clip-path="url(#e783d6976f)"><g clip-path="url(#c98ba5e86b)"><g clip-path="url(#bc287b1766)"><path fill="#16a34a" d="M 0.183594 0.0546875 L 87.191406 0.0546875 L 87.191406 87.0625 L 0.183594 87.0625 Z M 0.183594 0.0546875 " fill-opacity="1" fill-rule="nonzero"/></g></g></g></g></g></g></g></g></g></svg>